Coordinates
version=1
nRows=11
nColumns=63
inDegrees=yes

Units are S.I. units (second, meters, Newtons, ...)
If the header above contains a line with 'inDegrees', this indicates whether rotational values are in degrees (yes) or radians (no).

endheader
time	pelvis_tilt	pelvis_list	pelvis_rotation	pelvis_tx	pelvis_ty	pelvis_tz	hip_flexion_r	hip_adduction_r	hip_rotation_r	knee_angle_r	knee_angle_r_beta	ankle_angle_r	subtalar_angle_r	mtp_angle_r	hip_flexion_l	hip_adduction_l	hip_rotation_l	knee_angle_l	knee_angle_l_beta	ankle_angle_l	subtalar_angle_l	mtp_angle_l	L5_S1_Flex_Ext	L5_S1_Lat_Bending	L5_S1_axial_rotation	L4_L5_Flex_Ext	L4_L5_Lat_Bending	L4_L5_axial_rotation	L3_L4_Flex_Ext	L3_L4_Lat_Bending	L3_L4_axial_rotation	L2_L3_Flex_Ext	L2_L3_Lat_Bending	L2_L3_axial_rotation	L1_L2_Flex_Ext	L1_L2_Lat_Bending	L1_L2_axial_rotation	L1_T12_Flex_Ext	L1_T12_Lat_Bending	L1_T12_axial_rotation	Abs_r3	Abs_r2	Abs_r1	Abs_t1	Abs_t2	neck_flexion	neck_bending	neck_rotation	arm_flex_r	arm_add_r	arm_rot_r	elbow_flex_r	pro_sup_r	wrist_flex_r	wrist_dev_r	arm_flex_l	arm_add_l	arm_rot_l	elbow_flex_l	pro_sup_l	wrist_flex_l	wrist_dev_l
0.000000	-3.893200	-4.490668	108.061708	0.285738	0.757030	0.881428	1.643192	-0.238621	-20.390019	2.387920	0.041677	22.318506	12.612879	0.000000	6.829549	-0.979421	-0.246568	6.500144	0.113449	22.709819	11.518263	0.000000	0.170349	0.132347	-1.935638	0.316356	0.176021	-2.056615	0.279867	0.321788	-2.056615	0.194692	0.321788	-1.693683	0.158186	0.269881	-1.572706	0.097338	0.205005	-1.451729	1.216787	1.497131	-10.765438	0.000000	0.000000	22.878011	-1.580614	-4.433173	12.908076	-12.766874	60.700236	53.644942	25.519220	-0.907386	32.478406	4.004532	-12.507943	39.846911	62.777195	88.584909	8.778902	5.314634
0.016667	-4.027489	-4.535667	107.504844	0.286806	0.756867	0.881523	1.843484	-0.413894	-20.161092	2.641207	0.046098	22.732558	12.887944	0.000000	6.769052	-0.962720	-1.246750	6.528997	0.113953	22.607413	12.176948	0.000000	0.162170	0.119865	-1.776915	0.301165	0.159420	-1.887972	0.266429	0.291440	-1.887972	0.185344	0.291440	-1.554801	0.150591	0.244429	-1.443744	0.092664	0.185671	-1.332686	1.158362	1.355936	-9.882669	0.000000	0.000000	22.749806	-1.512990	-4.353226	11.783796	-12.451561	58.770467	54.154928	25.497182	-3.020665	32.396642	4.595440	-13.578865	42.248293	63.094201	88.835761	7.300262	4.476634
0.033333	-4.132298	-4.585529	107.038616	0.287663	0.756726	0.881625	2.027431	-0.562100	-20.033583	2.844908	0.049653	23.063513	13.190745	0.000000	6.735864	-0.941504	-2.041403	6.554677	0.114401	22.525258	12.628467	0.000000	0.156461	0.110387	-1.644577	0.290563	0.146814	-1.747363	0.257049	0.268394	-1.747363	0.178819	0.268394	-1.439005	0.145289	0.225101	-1.336218	0.089402	0.170989	-1.233432	1.117582	1.248717	-9.146642	0.000000	0.000000	22.687670	-1.433978	-4.240229	10.803385	-12.181978	57.064349	54.576521	25.617595	-4.657729	32.331103	5.094665	-14.424508	44.162379	63.339507	89.025510	6.209234	3.825714
0.050000	-4.210220	-4.638743	106.656656	0.288324	0.756603	0.881727	2.194969	-0.685230	-19.997504	3.004070	0.052431	23.319668	13.516087	0.000000	6.726134	-0.916553	-2.645103	6.577038	0.114791	22.461189	12.891628	0.000000	0.152949	0.103632	-1.536596	0.284042	0.137830	-1.632633	0.251280	0.251971	-1.632633	0.174806	0.251971	-1.344522	0.142029	0.211326	-1.248484	0.087395	0.160526	-1.152447	1.092501	1.172304	-8.546087	0.000000	0.000000	22.685120	-1.347963	-4.100235	9.956844	-11.954916	55.564686	54.918498	25.865249	-5.864515	32.281624	5.509606	-15.065522	45.633066	63.521177	89.160437	5.465513	3.347351
0.066667	-4.263850	-4.693798	106.352602	0.288807	0.756497	0.881825	2.346037	-0.785273	-20.042871	3.123734	0.054519	23.509323	13.858775	0.000000	6.736012	-0.888649	-3.072423	6.595938	0.115121	22.413038	12.985240	0.000000	0.151363	0.099320	-1.450948	0.281096	0.132096	-1.541632	0.248674	0.241487	-1.541632	0.172992	0.241487	-1.269579	0.140555	0.202534	-1.178895	0.086489	0.153847	-1.088211	1.081169	1.123530	-8.069735	0.000000	0.000000	22.735673	-1.259325	-3.939298	9.234174	-11.767167	54.254280	55.189633	26.224938	-6.686960	32.248039	5.847665	-15.522558	46.704253	63.647274	89.246823	5.028791	3.027022
0.083333	-4.295782	-4.749185	106.120087	0.289127	0.756406	0.881912	2.480572	-0.864220	-20.159695	3.208946	0.056007	23.640775	14.213618	0.000000	6.761648	-0.858574	-3.337939	6.611233	0.115388	22.378640	12.928111	0.000000	0.151429	0.097172	-1.385605	0.281218	0.129238	-1.472205	0.248782	0.236263	-1.472205	0.173068	0.236263	-1.212404	0.140617	0.198153	-1.125804	0.086526	0.150519	-1.039204	1.081639	1.099226	-7.706319	0.000000	0.000000	22.832845	-1.172449	-3.763471	8.625374	-11.615523	53.115934	55.398702	26.681452	-7.171001	32.230183	6.116244	-15.816266	47.419838	63.725860	89.290946	4.858763	2.850204
0.100000	-4.308610	-4.803391	105.952747	0.289301	0.756326	0.881982	2.598513	-0.924060	-20.337991	3.264750	0.056981	23.722323	14.575420	0.000000	6.799191	-0.827109	-3.456225	6.622779	0.115589	22.355829	12.739050	0.000000	0.152874	0.096906	-1.338542	0.283902	0.128885	-1.422201	0.251157	0.235618	-1.422201	0.174720	0.235618	-1.171224	0.141959	0.197611	-1.087565	0.087352	0.150108	-1.003907	1.091963	1.096223	-7.444569	0.000000	0.000000	22.970152	-1.091716	-3.578806	8.120446	-11.496774	52.132450	55.554480	27.219584	-7.362576	32.227890	6.322744	-15.967297	47.823718	63.765000	89.299088	4.915120	2.802375
0.116667	-4.304926	-4.854908	105.844218	0.289347	0.756257	0.882029	2.699797	-0.966783	-20.567772	3.296188	0.057529	23.762266	14.938988	0.000000	6.844790	-0.795036	-3.441856	6.630432	0.115723	22.342437	12.436864	0.000000	0.155426	0.098244	-1.307733	0.288642	0.130664	-1.389466	0.255350	0.238870	-1.389466	0.177637	0.238870	-1.144266	0.144329	0.200339	-1.062533	0.088811	0.152180	-0.980800	1.110194	1.111353	-7.273217	0.000000	0.000000	23.141111	-1.021510	-3.391357	7.709390	-11.407714	51.286630	55.665743	27.824126	-7.307622	32.240995	6.474566	-15.996302	47.959792	63.772757	89.277528	5.157557	2.869009
0.133333	-4.287326	-4.902223	105.788134	0.289280	0.756195	0.882048	2.784362	-0.994378	-20.839052	3.308306	0.057741	23.768902	15.299128	0.000000	6.894595	-0.763136	-3.309407	6.634049	0.115786	22.336298	12.040363	0.000000	0.158813	0.100904	-1.291151	0.294931	0.134202	-1.371848	0.260913	0.245338	-1.371848	0.181507	0.245338	-1.129757	0.147473	0.205764	-1.049060	0.090745	0.156300	-0.968363	1.134382	1.141448	-7.180994	0.000000	0.000000	23.339238	-0.966213	-3.207177	7.382206	-11.345132	50.561278	55.741265	28.479868	-7.052076	32.269332	6.579112	-15.923932	47.871958	63.757194	89.232547	5.545766	3.035586
0.150000	-4.258403	-4.943826	105.778130	0.289118	0.756139	0.882032	2.852146	-1.008837	-21.141844	3.306147	0.057703	23.750530	15.650647	0.000000	6.944756	-0.732191	-3.073451	6.633486	0.115776	22.335247	11.568354	0.000000	0.162760	0.104607	-1.286770	0.302262	0.139128	-1.367193	0.267399	0.254342	-1.367193	0.186019	0.254342	-1.125924	0.151139	0.213315	-1.045501	0.093001	0.162037	-0.965078	1.162581	1.183338	-7.156630	0.000000	0.000000	23.558049	-0.930207	-3.032319	7.128894	-11.305822	49.939196	55.789823	29.171604	-6.641876	32.312736	6.643783	-15.770836	47.604114	63.726373	89.170425	6.039442	3.287581
0.166667	-4.220751	-4.978207	105.807842	0.288876	0.756087	0.881975	2.903087	-1.012148	-21.466161	3.294755	0.057504	23.715447	15.988350	0.000000	6.991422	-0.702983	-2.748564	6.628599	0.115691	22.337116	11.039645	0.000000	0.166997	0.109073	-1.292565	0.310130	0.145067	-1.373350	0.274359	0.265200	-1.373350	0.190861	0.265200	-1.130994	0.155073	0.222422	-1.050209	0.095422	0.168954	-0.969424	1.192841	1.233855	-7.188858	0.000000	0.000000	23.791061	-0.917876	-2.872836	6.939456	-11.286574	49.403187	55.820192	29.884125	-6.122960	32.371042	6.675980	-15.557667	47.200158	63.688360	89.097442	6.598276	3.610471
